<svg xmlns="http://www.w3.org/2000/svg" xmlns:xlink="http://www.w3.org/1999/xlink" width="28" height="28" viewBox="0 0 28 28">
  <defs>
    <clipPath id="clip-path">
      <rect id="Rectangle_12591" data-name="Rectangle 12591" width="28" height="28" transform="translate(-12675.43 -9216.966)" fill="#fff"/>
    </clipPath>
    <linearGradient id="linear-gradient" x1="0.435" y1="0.125" x2="0.563" y2="1.411" gradientUnits="objectBoundingBox">
      <stop offset="0" stop-color="#a274bf"/>
      <stop offset="0.144" stop-color="#976fbb"/>
      <stop offset="0.393" stop-color="#7b61b3"/>
      <stop offset="0.716" stop-color="#4d4ba4"/>
      <stop offset="1" stop-color="#1f3596"/>
    </linearGradient>
    <linearGradient id="linear-gradient-2" x1="0.436" y1="-0.336" x2="0.589" y2="2.857" gradientUnits="objectBoundingBox">
      <stop offset="0" stop-color="#1f3596" stop-opacity="0"/>
      <stop offset="0.263" stop-color="#1f3191" stop-opacity="0.263"/>
      <stop offset="0.591" stop-color="#1d2781" stop-opacity="0.592"/>
      <stop offset="0.953" stop-color="#1b1768" stop-opacity="0.953"/>
      <stop offset="1" stop-color="#1b1464"/>
    </linearGradient>
    <linearGradient id="linear-gradient-3" x1="0.627" y1="0.526" x2="0.125" y2="0.609" xlink:href="#linear-gradient-2"/>
    <linearGradient id="linear-gradient-4" x1="0.416" y1="0.02" x2="0.617" y2="1.167" xlink:href="#linear-gradient"/>
    <linearGradient id="linear-gradient-5" x1="0.5" y1="0.326" x2="0.5" y2="0.956" xlink:href="#linear-gradient-2"/>
    <linearGradient id="linear-gradient-6" x1="0.5" y1="0.675" x2="0.5" y2="0.238" xlink:href="#linear-gradient-2"/>
    <linearGradient id="linear-gradient-7" x1="0.501" y1="0.515" x2="0.604" y2="1.55" xlink:href="#linear-gradient-2"/>
    <linearGradient id="linear-gradient-8" x1="0.501" y1="0.519" x2="0.58" y2="1.809" xlink:href="#linear-gradient-2"/>
    <linearGradient id="linear-gradient-9" x1="0.612" y1="0.5" x2="0.233" y2="0.5" xlink:href="#linear-gradient-2"/>
    <linearGradient id="linear-gradient-10" x1="0.572" x2="0.566" y2="1" gradientUnits="objectBoundingBox">
      <stop offset="0" stop-color="#fef0ae"/>
      <stop offset="1" stop-color="#fac600"/>
    </linearGradient>
    <linearGradient id="linear-gradient-11" x1="0.558" x2="0.572" y2="0.994" gradientUnits="objectBoundingBox">
      <stop offset="0" stop-color="#ffe044" stop-opacity="0"/>
      <stop offset="0.203" stop-color="#ffe044" stop-opacity="0.204"/>
      <stop offset="0.405" stop-color="#ffc144" stop-opacity="0.404"/>
      <stop offset="0.607" stop-color="#ffc144" stop-opacity="0.608"/>
      <stop offset="0.807" stop-color="#ffae44" stop-opacity="0.808"/>
      <stop offset="1" stop-color="#ffa244"/>
    </linearGradient>
    <linearGradient id="linear-gradient-12" x1="0.428" x2="0.434" xlink:href="#linear-gradient-10"/>
    <linearGradient id="linear-gradient-13" x1="0.442" x2="0.428" y2="0.994" xlink:href="#linear-gradient-11"/>
    <linearGradient id="linear-gradient-14" x1="0.577" y1="1" x2="0.615" y2="0.011" xlink:href="#linear-gradient-10"/>
    <linearGradient id="linear-gradient-15" x1="0.602" y1="1" x2="0.602" y2="0.014" gradientUnits="objectBoundingBox">
      <stop offset="0" stop-color="#ffe044"/>
      <stop offset="0.203" stop-color="#ffe044" stop-opacity="0.204"/>
      <stop offset="0.405" stop-color="#ffe044" stop-opacity="0.404"/>
      <stop offset="0.607" stop-color="#ffe044" stop-opacity="0.608"/>
      <stop offset="0.807" stop-color="#ffe044" stop-opacity="0.808"/>
      <stop offset="1" stop-color="#ffe044"/>
    </linearGradient>
    <linearGradient id="linear-gradient-16" x1="0.423" y1="1" x2="0.385" y2="0.011" xlink:href="#linear-gradient-10"/>
    <linearGradient id="linear-gradient-17" x1="0.398" x2="0.398" y2="0.014" xlink:href="#linear-gradient-15"/>
    <linearGradient id="linear-gradient-18" x1="0.5" y1="0.022" x2="0.5" y2="1.086" xlink:href="#linear-gradient-10"/>
    <linearGradient id="linear-gradient-19" x1="0.303" y1="0.303" x2="0.772" y2="0.772" xlink:href="#linear-gradient-10"/>
    <linearGradient id="linear-gradient-20" x1="0.924" y1="0.924" x2="-0.016" y2="-0.016" xlink:href="#linear-gradient-10"/>
    <linearGradient id="linear-gradient-21" x1="1.065" y1="0.626" x2="-0.352" y2="0.297" gradientUnits="objectBoundingBox">
      <stop offset="0" stop-color="#537983"/>
      <stop offset="1" stop-color="#384949"/>
    </linearGradient>
  </defs>
  <g id="close_chest0" transform="translate(12675.43 9216.966)" clip-path="url(#clip-path)">
    <g id="chest" transform="translate(-12674.18 -9211.965)">
      <g id="up" transform="translate(1.177 0.308)">
        <path id="Path_61596" data-name="Path 61596" d="M77.36,79.472H64.612a5.2,5.2,0,0,0-5.2,5.2v2.846H82.557V84.669a5.2,5.2,0,0,0-5.2-5.2Z" transform="translate(-59.415 -79.472)" fill="url(#linear-gradient)"/>
        <path id="Path_61597" data-name="Path 61597" d="M90.991,82.31a5.2,5.2,0,0,0-4.631-2.837H73.613a5.2,5.2,0,0,0-4.63,2.836Z" transform="translate(-68.411 -79.473)" fill="url(#linear-gradient-2)"/>
        <path id="Path_61598" data-name="Path 61598" d="M67.875,79.472H64.614a5.2,5.2,0,0,0-5.2,5.2v2.846h8.459Z" transform="translate(-59.414 -79.472)" fill="url(#linear-gradient-3)"/>
      </g>
      <g id="down" transform="translate(0)">
        <path id="Path_61599" data-name="Path 61599" d="M59.416,215.419H82.557v12.66H59.416Z" transform="translate(-58.239 -207.239)" fill="url(#linear-gradient-4)"/>
        <path id="Path_61600" data-name="Path 61600" d="M59.416,354.226H82.557v4.456H59.416Z" transform="translate(-58.239 -337.841)" fill="url(#linear-gradient-5)"/>
        <path id="Path_61601" data-name="Path 61601" d="M59.416,215.419H82.557v6.528H59.416Z" transform="translate(-58.239 -207.237)" fill="url(#linear-gradient-6)"/>
        <path id="Path_61602" data-name="Path 61602" d="M59.416,215.419H82.557v8.837H59.416Z" transform="translate(-58.239 -207.238)" fill="url(#linear-gradient-7)"/>
        <path id="Path_61603" data-name="Path 61603" d="M59.416,215.419H82.557V220.9H59.416Z" transform="translate(-58.239 -207.236)" fill="url(#linear-gradient-8)"/>
        <path id="Path_61604" data-name="Path 61604" d="M59.416,215.419h8.461v12.66H59.416Z" transform="translate(-58.239 -207.239)" fill="url(#linear-gradient-9)"/>
        <g id="left_down" transform="translate(0 5.989)">
          <path id="Path_61605" data-name="Path 61605" d="M412.683,91.563h1.062c.67,0,1.214-.386,1.214-.863V77.416c0-.476-.544-.863-1.214-.863-1.258,0-2.277.725-2.277,1.618V90.7C411.469,91.179,412.013,91.563,412.683,91.563Z" transform="translate(-411.469 -76.553)" fill="url(#linear-gradient-10)"/>
          <path id="Path_61606" data-name="Path 61606" d="M41.816,91.563H40.753c-.67,0-1.214-.386-1.214-.863V78.17c0-.893,1.02-1.618,2.277-1.618.67,0,1.214.386,1.214.863V90.7C43.03,91.178,42.487,91.563,41.816,91.563Z" transform="translate(-39.539 -76.552)" fill="url(#linear-gradient-11)"/>
        </g>
        <g id="right_down" transform="translate(22.006 5.989)">
          <path id="Path_61607" data-name="Path 61607" d="M413.746,91.563h-1.062c-.67,0-1.214-.386-1.214-.864V77.416c0-.476.544-.863,1.214-.863,1.258,0,2.277.725,2.277,1.618V90.7C414.96,91.179,414.417,91.563,413.746,91.563Z" transform="translate(-411.469 -76.553)" fill="url(#linear-gradient-12)"/>
          <path id="Path_61608" data-name="Path 61608" d="M40.753,91.563h1.062c.67,0,1.214-.386,1.214-.864V78.17c0-.893-1.02-1.618-2.277-1.618-.67,0-1.214.386-1.214.864V90.7C39.539,91.179,40.083,91.563,40.753,91.563Z" transform="translate(-39.539 -76.552)" fill="url(#linear-gradient-13)"/>
        </g>
        <g id="right_up" transform="translate(0.001)">
          <path id="Path_61609" data-name="Path 61609" d="M412.642,84.4H413.7c.67,0,1.256-.038,1.256-.708V77.77a1.214,1.214,0,0,0-1.214-1.212,2.275,2.275,0,0,0-2.277,2.273V83.7C411.469,84.363,411.971,84.4,412.642,84.4Z" transform="translate(-411.469 -76.558)" fill="url(#linear-gradient-14)"/>
          <path id="Path_61610" data-name="Path 61610" d="M412.642,84.4H413.7c.67,0,1.256-.038,1.256-.708V77.77a1.214,1.214,0,0,0-1.214-1.212,2.275,2.275,0,0,0-2.277,2.273V83.7C411.469,84.363,411.971,84.4,412.642,84.4Z" transform="translate(-411.469 -76.558)" fill="url(#linear-gradient-15)"/>
        </g>
        <g id="right_up-2" data-name="right_up" transform="translate(22.004)">
          <path id="Path_61611" data-name="Path 61611" d="M413.787,84.4h-1.062c-.67,0-1.256-.038-1.256-.708V77.77a1.213,1.213,0,0,1,1.214-1.212,2.275,2.275,0,0,1,2.277,2.273V83.7C414.96,84.363,414.457,84.4,413.787,84.4Z" transform="translate(-411.469 -76.558)" fill="url(#linear-gradient-16)"/>
          <path id="Path_61612" data-name="Path 61612" d="M413.787,84.4h-1.062c-.67,0-1.256-.038-1.256-.708V77.77a1.213,1.213,0,0,1,1.214-1.212,2.275,2.275,0,0,1,2.277,2.273V83.7C414.96,84.363,414.457,84.4,413.787,84.4Z" transform="translate(-411.469 -76.558)" fill="url(#linear-gradient-17)"/>
        </g>
        <path id="Path_61613" data-name="Path 61613" d="M44.348,191.143c4.283,0,8.239-.133,11.435-.355a1.465,1.465,0,0,0,0-2.915c-3.2-.224-7.15-.355-11.435-.355s-8.239.133-11.435.355a1.465,1.465,0,0,0,0,2.915C36.109,191.012,40.064,191.143,44.348,191.143Z" transform="translate(-31.597 -180.983)" fill="url(#linear-gradient-18)"/>
        <g id="lock" transform="translate(9.462 5.069)">
          <path id="Path_61614" data-name="Path 61614" d="M206.085,165.994a3.283,3.283,0,1,1-3.283-3.278A3.28,3.28,0,0,1,206.085,165.994Z" transform="translate(-199.52 -162.716)" fill="url(#linear-gradient-19)"/>
          <path id="Path_61615" data-name="Path 61615" d="M222.393,183.394a2.188,2.188,0,1,1-2.188-2.186,2.187,2.187,0,0,1,2.188,2.186Z" transform="translate(-216.919 -180.115)" fill="url(#linear-gradient-20)"/>
          <path id="Path_61616" data-name="Path 61616" d="M239.416,193.022a1.046,1.046,0,1,0-1.62.873,6.527,6.527,0,0,0,.057.689.523.523,0,0,0,1.035,0,6.572,6.572,0,0,0,.057-.689A1.044,1.044,0,0,0,239.416,193.022Z" transform="translate(-235.084 -190.249)" fill="url(#linear-gradient-21)"/>
        </g>
      </g>
    </g>
  </g>
</svg>
