<svg xmlns="http://www.w3.org/2000/svg" xmlns:xlink="http://www.w3.org/1999/xlink" width="24" height="24" viewBox="0 0 24 24">
  <defs>
    <clipPath id="clip-path">
      <rect id="Rectangle_12620" data-name="Rectangle 12620" width="24" height="24" transform="translate(241 115.24)" fill="#fff"/>
    </clipPath>
    <linearGradient id="linear-gradient" x1="0.5" x2="0.5" y2="1" gradientUnits="objectBoundingBox">
      <stop offset="0" stop-color="#b3dafe"/>
      <stop offset="1" stop-color="#0182fc"/>
    </linearGradient>
    <linearGradient id="linear-gradient-2" x1="0.355" y1="0.461" x2="-0.584" y2="0.566" gradientUnits="objectBoundingBox">
      <stop offset="0" stop-color="#0182fc" stop-opacity="0"/>
      <stop offset="1" stop-color="#2740b0"/>
    </linearGradient>
    <linearGradient id="linear-gradient-3" x1="0.472" y1="0.411" x2="0.524" y2="1.495" xlink:href="#linear-gradient-2"/>
    <linearGradient id="linear-gradient-4" x1="0.494" y1="0.483" x2="-0.3" y2="0.538" gradientUnits="objectBoundingBox">
      <stop offset="0" stop-color="#fff" stop-opacity="0"/>
      <stop offset="1" stop-color="#fff"/>
    </linearGradient>
    <linearGradient id="linear-gradient-5" x1="0.789" y1="0.483" x2="1.293" y2="0.467" xlink:href="#linear-gradient-4"/>
    <linearGradient id="linear-gradient-6" x1="0.446" y1="0.144" x2="0.548" y2="1.586" xlink:href="#linear-gradient-2"/>
    <linearGradient id="linear-gradient-7" x1="0.393" y1="0.725" x2="0.086" y2="-0.066" xlink:href="#linear-gradient-2"/>
  </defs>
  <g id="diamond" transform="translate(-241 -115.24)" clip-path="url(#clip-path)">
    <g id="blue" transform="translate(241.757 117.017)">
      <path id="Path_64916" data-name="Path 64916" d="M152.517,78.588H142.029a1.988,1.988,0,0,0-1.507.69l-4.133,4.8a1.979,1.979,0,0,0-.031,2.547l9.376,11.443a1.989,1.989,0,0,0,3.076,0l9.376-11.443a1.979,1.979,0,0,0-.031-2.547l-4.133-4.8A1.989,1.989,0,0,0,152.517,78.588Z" transform="translate(-135.91 -78.588)" fill="url(#linear-gradient)"/>
      <path id="Path_64917" data-name="Path 64917" d="M265.883,84.078l-4.133-4.8a1.988,1.988,0,0,0-1.507-.69H255V98.8a1.978,1.978,0,0,0,1.538-.727l9.376-11.443A1.979,1.979,0,0,0,265.883,84.078Z" transform="translate(-243.637 -78.589)" fill="url(#linear-gradient-2)"/>
      <path id="Path_64918" data-name="Path 64918" d="M140.527,79.278l-4.133,4.8a1.975,1.975,0,0,0-.479,1.26H158.64a1.975,1.975,0,0,0-.479-1.26l-4.133-4.8a1.988,1.988,0,0,0-1.507-.69H142.034A1.989,1.989,0,0,0,140.527,79.278Z" transform="translate(-135.914 -78.588)" fill="url(#linear-gradient-3)"/>
      <path id="Path_64919" data-name="Path 64919" d="M182.175,149.475l6.359,13.368a2.006,2.006,0,0,0,1.178,0l6.359-13.368Z" transform="translate(-177.761 -142.726)" fill="url(#linear-gradient-4)"/>
      <path id="Path_64920" data-name="Path 64920" d="M182.175,149.475l6.359,13.368a2.006,2.006,0,0,0,1.178,0l6.359-13.368Z" transform="translate(-177.761 -142.726)" fill="url(#linear-gradient-5)"/>
      <path id="Path_64921" data-name="Path 64921" d="M182.175,85.338h13.9l-.765-6.513a1.989,1.989,0,0,0-.94-.236H183.88a1.989,1.989,0,0,0-.94.236Z" transform="translate(-177.761 -78.589)" fill="url(#linear-gradient-6)"/>
      <path id="Path_64922" data-name="Path 64922" d="M196.072,85.337h-13.9l6.949-6.749Z" transform="translate(-177.761 -78.588)" fill="url(#linear-gradient-7)"/>
    </g>
  </g>
</svg>
