<svg xmlns="http://www.w3.org/2000/svg" width="98.593" height="24" viewBox="0 0 98.593 24">
  <g id="Eq" transform="translate(-39.738)">
    <path id="Path_36869" data-name="Path 36869" d="M14.195,23.855a1.355,1.355,0,0,0,1.389-1.309V9.455a1.392,1.392,0,0,0-2.778,0V22.545A1.355,1.355,0,0,0,14.195,23.855ZM19.751,28a1.355,1.355,0,0,0,1.389-1.309V5.309a1.392,1.392,0,0,0-2.778,0V26.691A1.355,1.355,0,0,0,19.751,28Zm5.557-4.145A1.355,1.355,0,0,0,26.7,22.545V9.455a1.392,1.392,0,0,0-2.778,0V22.545A1.355,1.355,0,0,0,25.308,23.855Z" transform="translate(60.862 -4)" fill="#e53935"/>
    <path id="Path_36870" data-name="Path 36870" d="M9.946,26.984A1.342,1.342,0,0,0,11.335,25.7V12.9a1.394,1.394,0,0,0-2.778,0V25.7A1.342,1.342,0,0,0,9.946,26.984ZM4.389,21.862a1.342,1.342,0,0,0,1.389-1.281V18.02a1.342,1.342,0,0,0-1.389-1.281A1.342,1.342,0,0,0,3,18.02v2.561A1.342,1.342,0,0,0,4.389,21.862Z" transform="translate(87.229 -7.301)" fill="#e53935"/>
    <path id="Path_36871" data-name="Path 36871" d="M9.946,23.855a1.355,1.355,0,0,0,1.389-1.309V9.455a1.392,1.392,0,0,0-2.778,0V22.545A1.355,1.355,0,0,0,9.946,23.855ZM15.5,28a1.355,1.355,0,0,0,1.389-1.309V5.309a1.392,1.392,0,0,0-2.778,0V26.691A1.355,1.355,0,0,0,15.5,28ZM4.389,18.618a1.355,1.355,0,0,0,1.389-1.309V14.691a1.355,1.355,0,0,0-1.389-1.309A1.355,1.355,0,0,0,3,14.691v2.618A1.355,1.355,0,0,0,4.389,18.618Zm16.67,5.236a1.355,1.355,0,0,0,1.389-1.309V9.455a1.392,1.392,0,0,0-2.778,0V22.545A1.355,1.355,0,0,0,21.059,23.855Zm4.167-9.164v2.618a1.392,1.392,0,0,0,2.778,0V14.691a1.392,1.392,0,0,0-2.778,0Z" transform="translate(98.592 -4)" fill="#e53935"/>
    <path id="Path_36872" data-name="Path 36872" d="M9.946,23.855a1.355,1.355,0,0,0,1.389-1.309V9.455a1.392,1.392,0,0,0-2.778,0V22.545A1.355,1.355,0,0,0,9.946,23.855ZM4.389,18.618a1.355,1.355,0,0,0,1.389-1.309V14.691a1.355,1.355,0,0,0-1.389-1.309A1.355,1.355,0,0,0,3,14.691v2.618A1.355,1.355,0,0,0,4.389,18.618Z" transform="translate(126.995 -4)" fill="#e53935"/>
    <path id="Path_36875" data-name="Path 36875" d="M9.946,23.855a1.355,1.355,0,0,0,1.389-1.309V9.455a1.392,1.392,0,0,0-2.778,0V22.545A1.355,1.355,0,0,0,9.946,23.855ZM15.5,28a1.355,1.355,0,0,0,1.389-1.309V5.309a1.392,1.392,0,0,0-2.778,0V26.691A1.355,1.355,0,0,0,15.5,28ZM4.389,18.618a1.355,1.355,0,0,0,1.389-1.309V14.691a1.355,1.355,0,0,0-1.389-1.309A1.355,1.355,0,0,0,3,14.691v2.618A1.355,1.355,0,0,0,4.389,18.618Zm16.67,5.236a1.355,1.355,0,0,0,1.389-1.309V9.455a1.392,1.392,0,0,0-2.778,0V22.545A1.355,1.355,0,0,0,21.059,23.855Zm4.167-9.164v2.618a1.392,1.392,0,0,0,2.778,0V14.691a1.392,1.392,0,0,0-2.778,0Z" transform="translate(36.738 -4)" fill="#e53935"/>
    <path id="Path_36874" data-name="Path 36874" d="M24,28a1.355,1.355,0,0,0,1.389-1.309V5.309a1.392,1.392,0,0,0-2.778,0V26.691A1.355,1.355,0,0,0,24,28Z" transform="translate(45.266 -4)" fill="#e53935"/>
  </g>
</svg>
