<svg xmlns="http://www.w3.org/2000/svg" xmlns:xlink="http://www.w3.org/1999/xlink" width="36" height="36" viewBox="0 0 36 36">
  <defs>
    <clipPath id="clip-path">
      <rect id="Rectangle_12766" data-name="Rectangle 12766" width="36" height="36" transform="translate(123 8.358)" fill="#fff"/>
    </clipPath>
    <linearGradient id="linear-gradient" x1="0.5" x2="0.5" y2="1" gradientUnits="objectBoundingBox">
      <stop offset="0" stop-color="#f8f8f8"/>
      <stop offset="1" stop-color="#e7ebec"/>
    </linearGradient>
    <linearGradient id="linear-gradient-2" x1="-0.025" x2="0.969" y2="1" gradientUnits="objectBoundingBox">
      <stop offset="0" stop-color="#f7f7f7"/>
      <stop offset="1" stop-color="#e8ebec"/>
    </linearGradient>
    <linearGradient id="linear-gradient-3" x1="0.5" x2="0.5" y2="1" gradientUnits="objectBoundingBox">
      <stop offset="0" stop-color="#21d27d"/>
      <stop offset="1" stop-color="#007a3f"/>
    </linearGradient>
  </defs>
  <g id="score" transform="translate(-123 -8.358)" clip-path="url(#clip-path)">
    <g id="score-2" data-name="score" transform="translate(127.663 10.354)">
      <path id="rect8964" d="M42.667,0A2.661,2.661,0,0,0,40,2.667V29.34a2.661,2.661,0,0,0,2.667,2.667H64.006a2.661,2.661,0,0,0,2.667-2.667V8.469L58.2,0Z" transform="translate(-40)" fill="url(#linear-gradient)"/>
      <path id="path4870" d="M321.477,8.477,313,0V5.807a2.664,2.664,0,0,0,2.67,2.67Z" transform="translate(-294.803)" fill="url(#linear-gradient-2)"/>
      <path id="path4918" d="M226.673,191.161a1.334,1.334,0,1,1,0-2.668h17.551a1.334,1.334,0,0,1,0,2.668Z" transform="translate(-222.11 -171.937)" fill="#d1d1d1"/>
      <path id="path4918-2" data-name="path4918" d="M226.673,191.161a1.334,1.334,0,1,1,0-2.668h17.551a1.334,1.334,0,0,1,0,2.668Z" transform="translate(-222.11 -166.953)" fill="#d1d1d1"/>
      <path id="path4918-3" data-name="path4918" d="M226.673,191.161a1.334,1.334,0,1,1,0-2.668h17.551a1.334,1.334,0,0,1,0,2.668Z" transform="translate(-222.11 -161.971)" fill="#d1d1d1"/>
      <path id="Path_74251" data-name="Path 74251" d="M26.323,19.953,23.317,12.74a1.2,1.2,0,0,0-2.219,0l-3.005,7.213a1.2,1.2,0,1,0,2.219.925l.443-1.063H23.66l.443,1.063a1.2,1.2,0,1,0,2.219-.925ZM21.757,17.41l.451-1.082.451,1.082Z" transform="translate(-15.237 -9.055)" fill="url(#linear-gradient-3)"/>
      <path id="Path_74252" data-name="Path 74252" d="M36.708,17.5h-.3v-.3a1.2,1.2,0,1,0-2.4,0v.3h-.3a1.2,1.2,0,1,0,0,2.4H34v.3a1.2,1.2,0,0,0,2.4,0v-.3h.3a1.2,1.2,0,1,0,0-2.4Z" transform="translate(-21.027 -10.652)" fill="url(#linear-gradient-3)"/>
    </g>
  </g>
</svg>
