<svg id="record_voice_over_black_24dp" xmlns="http://www.w3.org/2000/svg" width="24" height="24" viewBox="0 0 24 24">
  <path id="Path_36863" data-name="Path 36863" d="M0,0H24V24H0Z" fill="none"/>
  <circle id="Ellipse_711" data-name="Ellipse 711" cx="4" cy="4" r="4" transform="translate(5 5)" fill="#e53935"/>
  <path id="Path_36864" data-name="Path 36864" d="M9,15c-2.67,0-8,1.34-8,4v1a1,1,0,0,0,1,1H16a1,1,0,0,0,1-1V19C17,16.34,11.67,15,9,15Zm6.47-7.23a3.272,3.272,0,0,1,0,2.46,1.242,1.242,0,0,0,.25,1.36l.03.03a1.223,1.223,0,0,0,1.95-.27,4.989,4.989,0,0,0-.02-4.66,1.234,1.234,0,0,0-1.97-.29l-.01.01a1.27,1.27,0,0,0-.23,1.36Zm3.71-4.88a1.142,1.142,0,0,0-.13,1.48,7.945,7.945,0,0,1-.03,9.25,1.14,1.14,0,0,0,.14,1.46l.03.03a1.167,1.167,0,0,0,1.74-.1,9.773,9.773,0,0,0,0-12.02,1.178,1.178,0,0,0-1.75-.1Z" fill="#e53935"/>
</svg>
